<?xml version="1.0" encoding="utf-8"?>
<!-- Generator: Adobe Illustrator 18.0.0, SVG Export Plug-In . SVG Version: 6.00 Build 0)  -->
<!DOCTYPE svg PUBLIC "-//W3C//DTD SVG 1.1//EN" "http://www.w3.org/Graphics/SVG/1.1/DTD/svg11.dtd">
<svg version="1.1" id="Layer_1" xmlns="http://www.w3.org/2000/svg" xmlns:xlink="http://www.w3.org/1999/xlink" x="0px" y="0px"
	 viewBox="181 292 250 250" enable-background="new 181 292 250 250" xml:space="preserve">
<g>
	<path fill="none" stroke="#666766" stroke-miterlimit="10" d="M232.3,340.7c19.1-18.4,45-29.8,73.7-29.8c58.6,0,106,47.5,106,106
		s-47.5,106-106,106s-106-47.5-106-106c0-26.1,18.7-31.4,49.2-24.6"/>
	<path fill="none" stroke="#666766" stroke-miterlimit="10" d="M327,411.6c0,0-19.4,0.9-36.4,0.9s-35-18.1-35-18.1"/>
	<line fill="none" stroke="#4069B2" stroke-miterlimit="10" x1="291.4" y1="399.1" x2="273.3" y2="368.4"/>
	<path fill="none" stroke="#ED1968" stroke-miterlimit="10" d="M298.4,438.1c0,0-5.9-6.7-23.1-10.9c-17.2-4.1-26.1,0-26.1,0"/>
	<path fill="none" stroke="#ED1968" stroke-miterlimit="10" d="M262.6,457.1c0,0-14.6-3.1-24.8-13.8c-10.3-10.7-18-26.3-18-26.3"/>
	<line fill="none" stroke="#ED1968" stroke-miterlimit="10" x1="289.5" y1="472.7" x2="245" y2="475.6"/>
	<line fill="none" stroke="#ED1968" stroke-miterlimit="10" x1="321.5" y1="473.4" x2="306" y2="503.2"/>
	<line fill="none" stroke="#ED1968" stroke-miterlimit="10" x1="351.1" y1="455.4" x2="366.4" y2="478"/>
	<line fill="none" stroke="#ED1968" stroke-miterlimit="10" x1="365.1" y1="424.9" x2="392.2" y2="416.3"/>
	<line fill="none" stroke="#ED1968" stroke-miterlimit="10" x1="361.7" y1="391.3" x2="367" y2="357"/>
	<line fill="none" stroke="#ED1968" stroke-miterlimit="10" x1="342.5" y1="368.6" x2="306" y2="330.8"/>
	<path fill="none" stroke="#ED1968" stroke-miterlimit="10" d="M302.6,365.6c0,0-8.8-13.1-24.9-16.8c-16.1-3.7-33.3,6.5-33.3,6.5"/>
	<circle fill="none" stroke="#000000" stroke-miterlimit="10" cx="306" cy="417" r="70.9"/>
	<circle fill="none" stroke="#000000" stroke-miterlimit="10" cx="338" cy="368.4" r="7.1"/>
	<circle fill="none" stroke="#000000" stroke-miterlimit="10" cx="359.3" cy="393.3" r="7.1"/>
	<circle fill="none" stroke="#000000" stroke-miterlimit="10" cx="363.5" cy="425.8" r="7.1"/>
	<circle fill="none" stroke="#000000" stroke-miterlimit="10" cx="349.4" cy="456.2" r="7.1"/>
	<circle fill="none" stroke="#000000" stroke-miterlimit="10" cx="321.5" cy="473.4" r="7.1"/>
	<circle fill="none" stroke="#000000" stroke-miterlimit="10" cx="274" cy="368.4" r="7.1"/>
	<circle fill="none" stroke="#000000" stroke-miterlimit="10" cx="306" cy="369.5" r="7.1"/>
	<circle fill="none" stroke="#000000" stroke-miterlimit="10" cx="252.7" cy="393.3" r="7.1"/>
	<circle fill="none" stroke="#000000" stroke-miterlimit="10" cx="248.5" cy="425.8" r="7.1"/>
	<circle fill="none" stroke="#000000" stroke-miterlimit="10" cx="262.6" cy="456.2" r="7.1"/>
	<circle fill="none" stroke="#000000" stroke-miterlimit="10" cx="290.5" cy="473.4" r="7.1"/>
	<text transform="matrix(1 0 0 1 270.37 370.5904)" font-family="'MyriadPro-Regular'" font-size="6.3939">A5</text>
	<text transform="matrix(1 0 0 1 334.4349 370.5909)" font-family="'MyriadPro-Regular'" font-size="6.3939">A3</text>
	<text transform="matrix(1 0 0 1 355.6854 395.4557)" font-family="'MyriadPro-Regular'" font-size="6.3939">A2</text>
	<text transform="matrix(1 0 0 1 251.7352 395.4557)" font-family="'MyriadPro-Regular'" font-size="6.3939">-</text>
	<text transform="matrix(1 0 0 1 246.7264 428.3141)" font-family="'MyriadPro-Regular'" font-size="6.3939">+</text>
	<text transform="matrix(1 0 0 1 360.2645 427.2477)" font-family="'MyriadPro-Regular'" font-size="6.3939">11</text>
	<text transform="matrix(1 0 0 1 346.0946 459.0396)" font-family="'MyriadPro-Regular'" font-size="6.3939">10</text>
	<text transform="matrix(1 0 0 1 260.6673 459.0396)" font-family="'MyriadPro-Regular'" font-size="6.3939">5</text>
	<text transform="matrix(1 0 0 1 287.8416 475.9127)" font-family="'MyriadPro-Regular'" font-size="6.3939">6</text>
	<text transform="matrix(1 0 0 1 319.8114 475.9127)" font-family="'MyriadPro-Regular'" font-size="6.3939">9</text>
	<text transform="matrix(1 0 0 1 302.4032 371.3014)" font-family="'MyriadPro-Regular'" font-size="6.3939">A4</text>
	<g>
		
			<text transform="matrix(-0.7556 0.6551 -0.6551 -0.7556 326.673 410.9367)" font-family="'MyriadPro-Regular'" font-size="6.3942">-</text>
		
			<text transform="matrix(-0.7556 0.6551 -0.6551 -0.7556 298.9723 434.951)" font-family="'MyriadPro-Regular'" font-size="6.3942">+</text>
		
			<text transform="matrix(-0.7556 0.6551 -0.6551 -0.7556 290.8594 397.4575)" font-family="'MyriadPro-Regular'" font-size="6.3942">S</text>
		<circle fill="none" stroke="#000000" stroke-miterlimit="10" cx="306" cy="417" r="28.3"/>
		<circle fill="none" stroke="#000000" stroke-miterlimit="10" cx="327" cy="412.5" r="3.8"/>
		<circle fill="none" stroke="#000000" stroke-miterlimit="10" cx="298.4" cy="437.2" r="3.8"/>
		<circle fill="none" stroke="#000000" stroke-miterlimit="10" cx="291.4" cy="400.2" r="3.8"/>
	</g>
	<g>
		<path fill="none" stroke="#000000" stroke-miterlimit="10" d="M311,310c0-2.8-2.2-5-5-5s-5,2.2-5,5v21.2c0,2.8,2.2,5,5,5
			s5-2.2,5-5V310z"/>
		<circle cx="306" cy="310.5" r="3.4"/>
		<circle cx="306" cy="330.8" r="3.4"/>
	</g>
	<g>
		<path fill="none" stroke="#000000" stroke-miterlimit="10" d="M233.9,337.8c-2-2-5.1-2-7.1,0s-2,5.1,0,7.1l15,15c2,2,5.1,2,7.1,0
			s2-5.1,0-7.1L233.9,337.8z"/>
		<circle cx="230.7" cy="341.7" r="3.4"/>
		<circle cx="245" cy="356" r="3.4"/>
	</g>
	<g>
		<path fill="none" stroke="#000000" stroke-miterlimit="10" d="M199,412c-2.8,0-5,2.2-5,5s2.2,5,5,5h21.2c2.8,0,5-2.2,5-5
			s-2.2-5-5-5H199z"/>
		<circle cx="199.5" cy="417" r="3.4"/>
		<circle cx="219.8" cy="417" r="3.4"/>
	</g>
	<g>
		<path fill="none" stroke="#000000" stroke-miterlimit="10" d="M226.8,489.1c-2,2-2,5.1,0,7.1s5.1,2,7.1,0l15-15c2-2,2-5.1,0-7.1
			s-5.1-2-7.1,0L226.8,489.1z"/>
		<circle cx="230.7" cy="492.3" r="3.4"/>
		<circle cx="245" cy="478" r="3.4"/>
	</g>
	<g>
		<path fill="none" stroke="#000000" stroke-miterlimit="10" d="M301,524c0,2.8,2.2,5,5,5s5-2.2,5-5v-21.2c0-2.8-2.2-5-5-5
			s-5,2.2-5,5V524z"/>
		<circle cx="306" cy="523.5" r="3.4"/>
		<circle cx="306" cy="503.2" r="3.4"/>
	</g>
	<g>
		<path fill="none" stroke="#000000" stroke-miterlimit="10" d="M378.1,496.2c2,2,5.1,2,7.1,0s2-5.1,0-7.1l-15-15c-2-2-5.1-2-7.1,0
			s-2,5.1,0,7.1L378.1,496.2z"/>
		<circle cx="381.3" cy="492.3" r="3.4"/>
		<circle cx="367" cy="478" r="3.4"/>
	</g>
	<g>
		<path fill="none" stroke="#000000" stroke-miterlimit="10" d="M413,422c2.8,0,5-2.2,5-5s-2.2-5-5-5h-21.2c-2.8,0-5,2.2-5,5
			s2.2,5,5,5H413z"/>
		<circle cx="412.5" cy="417" r="3.4"/>
		<circle cx="392.2" cy="417" r="3.4"/>
	</g>
	<g>
		<path fill="none" stroke="#000000" stroke-miterlimit="10" d="M385.2,344.9c2-2,2-5.1,0-7.1s-5.1-2-7.1,0l-15,15c-2,2-2,5.1,0,7.1
			s5.1,2,7.1,0L385.2,344.9z"/>
		<circle cx="381.3" cy="341.7" r="3.4"/>
		<circle cx="367" cy="356" r="3.4"/>
	</g>
</g>
</svg>
